HIERARCHY
ROOT Hips
{
	OFFSET 0.000000 0.000000 0.000000
	CHANNELS 6 Xposition Yposition Zposition Xrotation Yrotation Zrotation
	JOINT LeftUpLeg_virtual
	{
		OFFSET 0.000000 0.000000 0.000000
		CHANNELS 3 Xrotation Yrotation Zrotation
		JOINT LeftUpLeg
		{
			OFFSET 11.394100 -6.187798 -0.413800
			CHANNELS 3 Xrotation Yrotation Zrotation
			JOINT LeftLeg
			{
				OFFSET 0.430247 -32.302673 3.732800
				CHANNELS 3 Xrotation Yrotation Zrotation
				JOINT LeftFoot
				{
					OFFSET -0.430247 -48.264931 -6.423300
					CHANNELS 3 Xrotation Yrotation Zrotation
					JOINT LeftToeBase
					{
						OFFSET 4.230900 -16.068199 23.438400
						CHANNELS 3 Xrotation Yrotation Zrotation
						JOINT LeftToe_End
						{
							OFFSET 4.510700 0.695400 19.974600
							CHANNELS 3 Xrotation Yrotation Zrotation
							End Site
							{
								OFFSET 0 0 0
							}
						}
					}
				}
			}
		}
	}
	JOINT RightUpLeg_virtual
	{
		OFFSET 0.000000 0.000000 0.000000
		CHANNELS 3 Xrotation Yrotation Zrotation
		JOINT RightUpLeg
		{
			OFFSET -11.333700 -6.187798 -0.413800
			CHANNELS 3 Xrotation Yrotation Zrotation
			JOINT RightLeg
			{
				OFFSET -0.430392 -32.302628 3.733000
				CHANNELS 3 Xrotation Yrotation Zrotation
				JOINT RightFoot
				{
					OFFSET 0.430392 -48.264973 -6.423500
					CHANNELS 3 Xrotation Yrotation Zrotation
					JOINT RightToeBase
					{
						OFFSET -4.230900 -16.068199 23.438400
						CHANNELS 3 Xrotation Yrotation Zrotation
						JOINT RightToe_End
						{
							OFFSET -4.510700 0.695400 19.974600
							CHANNELS 3 Xrotation Yrotation Zrotation
							End Site
							{
								OFFSET 0 0 0
							}
						}
					}
				}
			}
		}
	}
	JOINT Spine_virtual
	{
		OFFSET 0.000000 0.000000 0.000000
		CHANNELS 3 Xrotation Yrotation Zrotation
		JOINT Spine
		{
			OFFSET -0.002400 12.777504 0.315300
			CHANNELS 3 Xrotation Yrotation Zrotation
			JOINT Spine1
			{
				OFFSET -0.002067 5.816869 0.032633
				CHANNELS 3 Xrotation Yrotation Zrotation
				JOINT Spine1_split
				{
					OFFSET -0.002067 5.816869 0.032633
					CHANNELS 3 Xrotation Yrotation Zrotation
					JOINT Spine2
					{
						OFFSET -0.002067 5.816869 0.032633
						CHANNELS 3 Xrotation Yrotation Zrotation
						JOINT Neck_virtual
						{
							OFFSET 0.000000 0.000000 0.000000
							CHANNELS 3 Xrotation Yrotation Zrotation
							JOINT Neck
							{
								OFFSET -0.003700 21.199493 -0.826900
								CHANNELS 3 Xrotation Yrotation Zrotation
								JOINT Head
								{
									OFFSET 0.000000 20.442200 4.834800
									CHANNELS 3 Xrotation Yrotation Zrotation
									JOINT HeadTop_End
									{
										OFFSET 0.000000 34.668396 4.968400
										CHANNELS 3 Xrotation Yrotation Zrotation
										End Site
										{
											OFFSET 0 0 0
										}
									}
								}
							}
						}
						JOINT LeftShoulder_virtual
						{
							OFFSET 0.000000 0.000000 0.000000
							CHANNELS 3 Xrotation Yrotation Zrotation
							JOINT LeftShoulder
							{
								OFFSET 3.288150 8.794197 -1.372250
								CHANNELS 3 Xrotation Yrotation Zrotation
								JOINT LeftShoulder_split
								{
									OFFSET 3.288150 8.794197 -1.372250
									CHANNELS 3 Xrotation Yrotation Zrotation
									JOINT LeftArm
									{
										OFFSET 11.953299 -2.279007 -0.146200
										CHANNELS 3 Xrotation Yrotation Zrotation
										JOINT LeftForeArm
										{
											OFFSET 18.448900 0.000000 0.000000
											CHANNELS 3 Xrotation Yrotation Zrotation
											JOINT LeftHand
											{
												OFFSET 29.527798 0.000000 0.000000
												CHANNELS 3 Xrotation Yrotation Zrotation
												End Site
												{
													OFFSET 0 0 0
												}
											}
										}
									}
								}
							}
						}
						JOINT RightShoulder_virtual
						{
							OFFSET 0.000000 0.000000 0.000000
							CHANNELS 3 Xrotation Yrotation Zrotation
							JOINT RightShoulder
							{
								OFFSET -3.249400 8.794197 -1.372250
								CHANNELS 3 Xrotation Yrotation Zrotation
								JOINT RightShoulder_split
								{
									OFFSET -3.249400 8.794197 -1.372250
									CHANNELS 3 Xrotation Yrotation Zrotation
									JOINT RightArm
									{
										OFFSET -11.953299 -2.279007 -0.146200
										CHANNELS 3 Xrotation Yrotation Zrotation
										JOINT RightForeArm
										{
											OFFSET -18.448900 0.000000 0.000000
											CHANNELS 3 Xrotation Yrotation Zrotation
											JOINT RightHand
											{
												OFFSET -29.527802 0.000000 0.000000
												CHANNELS 3 Xrotation Yrotation Zrotation
												End Site
												{
													OFFSET 0 0 0
												}
											}
										}
									}
								}
							}
						}
					}
				}
			}
		}
	}
}
MOTION
Frames: 11
Frame Time: 0.03333333
53.493164 94.359413 28.567411 0.000000 0.000000 0.000000 -10.762454 -56.863053 -11.130833 -17.075756 12.875900 5.330620 43.479888 -9.810500 1.696130 -22.068700 14.975528 4.300259 -3.382239 0.000005 -0.000002 0.000000 0.000000 0.000000 -10.762454 -56.863053 -11.130833 -25.448394 19.692486 -10.314293 54.161477 -13.026035 -10.401219 23.244546 0.652994 25.471461 -22.559866 -3.591893 16.483256 0.000000 0.000000 0.000000 -10.762454 -56.863053 -11.130833 9.664266 7.943803 -0.491630 2.662957 17.145950 -2.401211 0.000000 0.000000 0.000000 0.000000 0.000000 0.000000 3.209017 13.582541 -1.840705 -0.835035 -4.107088 0.327522 1.616709 -45.330149 4.399507 0.000000 0.000000 0.000000 3.209017 13.582541 -1.840705 -6.690962 -24.917015 -29.325752 0.000000 0.000000 0.000000 -17.150499 26.242813 -47.937748 0.000002 -37.261400 -0.000003 0.000000 0.000000 0.000000 3.209017 13.582541 -1.840705 16.288801 -29.166721 21.993783 0.000000 0.000000 0.000000 17.892138 -24.268782 42.118717 -179.999937 66.114544 179.999923 0.000000 0.000000 0.000000 
53.466183 94.322502 30.868015 0.000000 0.000000 0.000000 -11.429400 -54.636643 -11.703122 -15.039224 12.888208 3.745359 43.285282 -10.027613 2.123814 -23.102073 13.749792 5.668573 -3.339839 0.000025 0.000001 0.000000 0.000000 0.000000 -11.429400 -54.636643 -11.703122 -29.748503 20.912590 -5.366370 59.735277 -10.371260 -9.494440 20.959112 7.573039 19.631777 -30.913252 -7.097139 13.788607 0.000000 0.000000 0.000000 -11.429400 -54.636643 -11.703122 10.423454 5.668826 -0.324187 2.886333 16.500540 -2.402981 0.000000 0.000000 0.000000 0.000000 0.000000 0.000000 3.439227 13.460941 -1.993052 -0.825261 -4.058133 0.451980 1.734944 -45.565216 4.903151 0.000000 0.000000 0.000000 3.439227 13.460941 -1.993052 -7.018223 -26.326411 -29.169289 0.000000 0.000000 0.000000 -18.434950 23.003971 -47.374008 0.000004 -36.923275 0.000018 0.000000 0.000000 0.000000 3.439227 13.460941 -1.993052 16.511892 -29.414698 22.476722 0.000000 0.000000 0.000000 18.832087 -26.862722 43.040519 -179.999978 65.978657 179.999950 0.000000 0.000000 0.000000 
53.354359 94.573448 33.206383 0.000000 0.000000 0.000000 -11.006045 -51.432653 -11.598738 -13.108939 12.718716 3.010479 42.244816 -10.050074 2.096476 -23.558224 10.966893 6.753223 -3.162132 -0.000015 0.000000 0.000000 0.000000 0.000000 -11.006045 -51.432653 -11.598738 -33.140781 20.300377 -0.862259 62.102559 -8.976873 -7.932816 19.502589 15.724713 14.708191 -40.266123 -4.510023 6.268061 0.000000 0.000000 0.000000 -11.006045 -51.432653 -11.598738 10.786376 2.717505 0.284649 3.054875 15.663594 -2.352308 0.000000 0.000000 0.000000 0.000000 0.000000 0.000000 3.615016 13.134272 -2.081373 -0.759838 -3.950826 0.589089 2.105243 -45.390022 5.394829 0.000000 0.000000 0.000000 3.615016 13.134272 -2.081373 -7.328470 -28.082435 -28.771106 0.000000 0.000000 0.000000 -18.947624 20.246122 -47.384485 0.000028 -37.580285 0.000010 0.000000 0.000000 0.000000 3.615016 13.134272 -2.081373 16.552040 -29.563022 22.660667 0.000000 0.000000 0.000000 19.613143 -28.573956 43.849695 179.999991 66.371503 -179.999991 0.000000 0.000000 0.000000 
53.189224 95.008865 35.615150 0.000000 0.000000 0.000000 -9.907703 -47.817437 -10.987831 -11.137875 12.391903 2.781119 40.377377 -10.134262 1.569673 -23.580605 7.534686 7.588718 -2.895721 -0.000001 -0.000001 0.000000 0.000000 0.000000 -9.907703 -47.817437 -10.987831 -35.791591 19.156787 2.554912 61.612684 -9.216115 -6.316824 18.180475 21.113035 12.145751 -42.398690 -0.532634 0.708545 0.000000 0.000000 0.000000 -9.907703 -47.817437 -10.987831 10.894023 -0.486175 1.043536 3.195170 14.763920 -2.286728 0.000000 0.000000 0.000000 0.000000 0.000000 0.000000 3.762185 12.720736 -2.143571 -0.710409 -3.835615 0.741273 2.753899 -45.097738 5.846699 0.000000 0.000000 0.000000 3.762185 12.720736 -2.143571 -7.598351 -30.007678 -28.209159 0.000000 0.000000 0.000000 -18.872550 17.780958 -47.791626 -0.000018 -39.372711 -0.000035 0.000000 0.000000 0.000000 3.762185 12.720736 -2.143571 16.551864 -29.456591 22.826192 0.000000 0.000000 0.000000 19.255362 -29.305080 43.890919 -179.999978 67.122250 179.999964 0.000000 0.000000 0.000000 
52.993954 95.510437 38.078922 0.000000 0.000000 0.000000 -8.664408 -44.514361 -10.271395 -8.918684 12.278956 3.190152 37.644362 -10.281978 0.254077 -23.299438 3.773692 8.093567 -2.702476 0.000030 0.000001 0.000000 0.000000 0.000000 -8.664408 -44.514361 -10.271395 -38.775626 18.536514 4.991103 60.172935 -10.306860 -4.904042 14.200371 21.406218 13.008491 -34.120883 0.758432 -1.344266 0.000000 0.000000 0.000000 -8.664408 -44.514361 -10.271395 10.947479 -3.351409 1.796555 3.318394 13.964347 -2.238367 0.000000 0.000000 0.000000 0.000000 0.000000 0.000000 3.892207 12.370905 -2.214526 -0.705423 -3.750112 0.901801 3.456251 -44.903491 6.310441 0.000000 0.000000 0.000000 3.892207 12.370905 -2.214526 -7.768316 -31.874283 -27.459048 0.000000 0.000000 0.000000 -18.730522 15.025860 -48.431686 0.000011 -41.619696 0.000005 0.000000 0.000000 0.000000 3.892207 12.370905 -2.214526 16.623576 -29.172482 23.168905 0.000000 0.000000 0.000000 16.707758 -28.816172 42.936946 179.999950 68.118037 -179.999950 0.000000 0.000000 0.000000 
52.763565 95.771622 40.510918 0.000000 0.000000 0.000000 -7.254739 -41.550923 -9.374193 -7.158047 12.571809 4.283522 35.249599 -10.401564 -1.869292 -23.168237 -0.525854 8.830845 -2.676874 0.000005 0.000000 0.000000 0.000000 0.000000 -7.254739 -41.550923 -9.374193 -40.940109 18.008941 6.397957 56.002849 -10.565305 -3.311123 11.781155 18.175121 13.390705 -24.981227 0.575779 -1.526249 0.000000 0.000000 0.000000 -7.254739 -41.550923 -9.374193 10.929462 -5.915265 2.374514 3.383852 13.256653 -2.218392 0.000000 0.000000 0.000000 0.000000 0.000000 0.000000 3.964101 12.066099 -2.304477 -0.706749 -3.686936 1.097582 4.077656 -44.804798 6.876751 0.000000 0.000000 0.000000 3.964101 12.066099 -2.304477 -7.841341 -33.725097 -26.533861 0.000000 0.000000 0.000000 -18.654143 12.292841 -49.030803 0.000002 -44.714995 -0.000005 0.000000 0.000000 0.000000 3.964101 12.066099 -2.304477 16.751493 -28.858222 23.642877 0.000000 0.000000 0.000000 12.560959 -26.854692 41.389553 179.999937 69.256820 -179.999937 0.000000 0.000000 0.000000 
52.533302 95.762199 42.851257 0.000000 0.000000 0.000000 -5.753535 -38.404265 -8.327592 -6.543589 12.967692 4.932219 34.505528 -10.454936 -2.958538 -23.155885 -4.714553 9.480483 -2.736977 0.000001 0.000002 0.000000 0.000000 0.000000 -5.753535 -38.404265 -8.327592 -41.816061 17.613425 6.323652 49.158777 -10.589320 -1.477923 11.149202 12.706554 14.378766 -15.460381 0.459314 -2.256914 0.000000 0.000000 0.000000 -5.753535 -38.404265 -8.327592 10.979119 -8.514662 2.851285 3.444224 12.537735 -2.259615 0.000000 0.000000 0.000000 0.000000 0.000000 0.000000 4.029722 11.694918 -2.441233 -0.743696 -3.647984 1.351183 4.648074 -44.908887 7.778137 0.000000 0.000000 0.000000 4.029722 11.694918 -2.441233 -7.832294 -35.558791 -25.497661 0.000000 0.000000 0.000000 -18.948166 9.414042 -49.313208 0.000005 -48.086676 -0.000008 0.000000 0.000000 0.000000 4.029722 11.694918 -2.441233 17.066332 -28.807399 24.438137 0.000000 0.000000 0.000000 7.944115 -23.503149 39.614595 -179.999978 71.306451 179.999978 0.000000 0.000000 0.000000 
52.207859 95.685867 45.032780 0.000000 0.000000 0.000000 -4.317777 -35.237407 -7.300441 -6.206818 12.894513 5.136540 34.220791 -10.438898 -3.450410 -23.378500 -8.344138 10.321083 -2.790714 0.000000 0.000004 0.000000 0.000000 0.000000 -4.317777 -35.237407 -7.300441 -41.329389 17.313406 5.325728 39.698091 -10.590441 0.253798 11.887025 5.555556 15.564768 -5.055052 0.025862 -1.356852 0.000000 0.000000 0.000000 -4.317777 -35.237407 -7.300441 11.127246 -10.888901 3.338642 3.554176 11.869942 -2.370831 0.000000 0.000000 0.000000 0.000000 0.000000 0.000000 4.145769 11.312878 -2.631263 -0.838933 -3.661520 1.637051 5.256697 -45.375122 9.072294 0.000000 0.000000 0.000000 4.145769 11.312878 -2.631263 -7.821831 -37.400798 -24.562088 0.000000 0.000000 0.000000 -19.794604 6.109703 -49.192371 0.000033 -50.912964 0.000020 0.000000 0.000000 0.000000 4.145769 11.312878 -2.631263 17.517104 -29.061543 25.458500 0.000000 0.000000 0.000000 4.338403 -20.380282 38.911482 -179.999991 74.295779 179.999991 0.000000 0.000000 0.000000 
51.564960 95.604179 46.983047 0.000000 0.000000 0.000000 -2.881718 -32.809364 -6.405134 -6.054310 12.327729 5.164350 34.129994 -10.268496 -3.575422 -23.910032 -10.736216 11.115533 -2.852855 0.000042 0.000002 0.000000 0.000000 0.000000 -2.881718 -32.809364 -6.405134 -40.054149 16.890125 3.985712 28.523413 -10.554533 1.976980 11.868776 -1.236145 17.399956 -3.644879 0.000018 -0.000005 0.000000 0.000000 0.000000 -2.881718 -32.809364 -6.405134 11.110835 -12.522737 3.891117 3.665550 11.395342 -2.486490 0.000000 0.000000 0.000000 0.000000 0.000000 0.000000 4.264208 11.053664 -2.808292 -0.916055 -3.715333 1.878025 5.808077 -46.064804 10.311520 0.000000 0.000000 0.000000 4.264208 11.053664 -2.808292 -7.900116 -39.101662 -23.993276 0.000000 0.000000 0.000000 -21.078865 2.579738 -48.985345 -0.000001 -53.042727 0.000006 0.000000 0.000000 0.000000 4.264208 11.053664 -2.808292 17.584023 -29.177950 25.863078 0.000000 0.000000 0.000000 3.334535 -18.864158 39.953533 -179.999896 77.096143 179.999896 0.000000 0.000000 0.000000 
50.535488 95.567101 48.818363 0.000000 0.000000 0.000000 -1.415901 -31.427411 -5.475015 -5.856865 11.713545 5.152257 33.935170 -9.892490 -3.696638 -24.504528 -12.088012 11.747025 -3.131574 -0.000000 -0.000001 0.000000 0.000000 0.000000 -1.415901 -31.427411 -5.475015 -40.069373 16.067293 2.722221 19.442067 -9.796668 4.355208 9.891548 -8.647358 18.729992 -3.673357 -0.000006 -0.000003 0.000000 0.000000 0.000000 -1.415901 -31.427411 -5.475015 10.698716 -13.406518 4.274656 3.729317 11.118886 -2.575000 0.000000 0.000000 0.000000 0.000000 0.000000 0.000000 4.331986 10.910398 -2.940586 -0.903516 -3.767711 2.041601 6.217782 -46.710154 11.099711 0.000000 0.000000 0.000000 4.331986 10.910398 -2.940586 -7.862957 -40.322681 -23.372335 0.000000 0.000000 0.000000 -22.571371 -0.794341 -49.513366 -0.000003 -54.600471 -0.000012 0.000000 0.000000 0.000000 4.331986 10.910398 -2.940586 17.520350 -29.225246 26.065563 0.000000 0.000000 0.000000 3.029853 -17.732870 41.542580 -179.999786 79.997184 179.999814 0.000000 0.000000 0.000000 
48.966557 95.026680 50.919853 0.000000 0.000000 0.000000 -0.038215 -30.658537 -4.251857 -5.946151 11.270084 5.131900 35.044010 -9.418854 -3.905903 -25.760111 -13.023622 12.152625 -4.449159 0.000015 -0.000001 0.000000 0.000000 0.000000 -0.038215 -30.658537 -4.251857 -44.263130 15.085323 4.050886 17.867765 -8.345501 4.594521 4.650741 -18.352631 16.063512 -3.994144 0.000015 0.000007 0.000000 0.000000 0.000000 -0.038215 -30.658537 -4.251857 9.673920 -13.993804 4.304827 3.802968 10.944145 -2.716848 0.000000 0.000000 0.000000 0.000000 0.000000 0.000000 4.402991 10.774509 -3.108199 -0.782084 -3.817458 2.169772 6.713344 -47.237865 11.489314 0.000000 0.000000 0.000000 4.402991 10.774509 -3.108199 -7.509761 -40.992118 -22.233044 0.000000 0.000000 0.000000 -23.834756 -3.554332 -50.989667 -0.000056 -56.400861 -0.000068 0.000000 0.000000 0.000000 4.402991 10.774509 -3.108199 17.330131 -29.254639 26.060530 0.000000 0.000000 0.000000 3.538272 -17.276960 43.501014 -179.999636 82.501841 179.999663 0.000000 0.000000 0.000000 
